<mxfile host="app.diagrams.net" modified="2023-04-28T11:53:34.663Z" agent="Mozilla/5.0 (Windows NT 10.0; Win64; x64; rv:109.0) Gecko/20100101 Firefox/112.0" etag="GXR9MZesyZaJEsxDdRcm" version="21.2.3" type="device">
  <diagram name="Page-1" id="5SdSSSAluMcNTr8EdPVz">
    <mxGraphModel dx="1050" dy="1365" grid="1" gridSize="10" guides="1" tooltips="1" connect="1" arrows="1" fold="1" page="1" pageScale="1" pageWidth="1169" pageHeight="827" math="0" shadow="0">
      <root>
        <mxCell id="0" />
        <mxCell id="1" parent="0" />
        <mxCell id="9ysJkB-p09xtjBn3U5HX-10" value="" style="group;fillColor=#e1d5e7;strokeColor=#9673a6;fillStyle=auto;" parent="1" vertex="1" connectable="0">
          <mxGeometry x="295" y="20" width="210" height="300" as="geometry" />
        </mxCell>
        <mxCell id="9ysJkB-p09xtjBn3U5HX-9" value="" style="rounded=0;whiteSpace=wrap;html=1;fillColor=#D4E1F5;" parent="9ysJkB-p09xtjBn3U5HX-10" vertex="1">
          <mxGeometry width="210" height="300" as="geometry" />
        </mxCell>
        <mxCell id="9ysJkB-p09xtjBn3U5HX-4" value="&lt;font style=&quot;font-size: 14px;&quot;&gt;Feature Scaling&lt;/font&gt;" style="rounded=0;whiteSpace=wrap;html=1;fillColor=#fff2cc;strokeColor=#d6b656;" parent="9ysJkB-p09xtjBn3U5HX-10" vertex="1">
          <mxGeometry x="45" y="170" width="120" height="60" as="geometry" />
        </mxCell>
        <mxCell id="9ysJkB-p09xtjBn3U5HX-3" value="&lt;font style=&quot;font-size: 14px;&quot;&gt;Feature Extaction&lt;/font&gt;" style="rounded=0;whiteSpace=wrap;html=1;fillColor=#fff2cc;strokeColor=#d6b656;" parent="9ysJkB-p09xtjBn3U5HX-10" vertex="1">
          <mxGeometry x="45" y="70" width="120" height="60" as="geometry" />
        </mxCell>
        <mxCell id="9ysJkB-p09xtjBn3U5HX-60" value="&lt;font style=&quot;font-size: 14px;&quot;&gt;Feature Pipeline&lt;/font&gt;" style="text;html=1;strokeColor=none;fillColor=none;align=center;verticalAlign=middle;whiteSpace=wrap;rounded=0;" parent="9ysJkB-p09xtjBn3U5HX-10" vertex="1">
          <mxGeometry x="51.25" y="270" width="107.5" height="30" as="geometry" />
        </mxCell>
        <mxCell id="9ysJkB-p09xtjBn3U5HX-12" value="" style="group;fillColor=#D4E1F5;strokeColor=#6c8ebf;" parent="1" vertex="1" connectable="0">
          <mxGeometry x="10" y="20" width="210" height="300" as="geometry" />
        </mxCell>
        <mxCell id="9ysJkB-p09xtjBn3U5HX-8" value="" style="rounded=0;whiteSpace=wrap;html=1;gradientColor=none;fillColor=none;" parent="9ysJkB-p09xtjBn3U5HX-12" vertex="1">
          <mxGeometry width="210" height="300" as="geometry" />
        </mxCell>
        <mxCell id="9ysJkB-p09xtjBn3U5HX-1" value="&lt;font style=&quot;font-size: 14px;&quot;&gt;Data Collection&lt;/font&gt;" style="rounded=0;whiteSpace=wrap;html=1;fillColor=#fff2cc;strokeColor=#d6b656;" parent="9ysJkB-p09xtjBn3U5HX-12" vertex="1">
          <mxGeometry x="45" y="70" width="120" height="60" as="geometry" />
        </mxCell>
        <mxCell id="9ysJkB-p09xtjBn3U5HX-2" value="&lt;font style=&quot;font-size: 14px;&quot;&gt;Data Preprocessing&lt;/font&gt;" style="rounded=0;whiteSpace=wrap;html=1;fillColor=#fff2cc;strokeColor=#d6b656;" parent="9ysJkB-p09xtjBn3U5HX-12" vertex="1">
          <mxGeometry x="45" y="170" width="120" height="60" as="geometry" />
        </mxCell>
        <mxCell id="9ysJkB-p09xtjBn3U5HX-57" value="&lt;font style=&quot;font-size: 14px;&quot;&gt;Data Pipeline&lt;/font&gt;" style="text;html=1;strokeColor=none;fillColor=none;align=center;verticalAlign=middle;whiteSpace=wrap;rounded=0;" parent="9ysJkB-p09xtjBn3U5HX-12" vertex="1">
          <mxGeometry x="51.25" y="270" width="107.5" height="30" as="geometry" />
        </mxCell>
        <mxCell id="9ysJkB-p09xtjBn3U5HX-48" style="edgeStyle=orthogonalEdgeStyle;rounded=0;orthogonalLoop=1;jettySize=auto;html=1;exitX=1;exitY=0.5;exitDx=0;exitDy=0;entryX=0;entryY=0.5;entryDx=0;entryDy=0;" parent="1" source="9ysJkB-p09xtjBn3U5HX-13" target="9ysJkB-p09xtjBn3U5HX-14" edge="1">
          <mxGeometry relative="1" as="geometry" />
        </mxCell>
        <mxCell id="9ysJkB-p09xtjBn3U5HX-49" style="edgeStyle=orthogonalEdgeStyle;rounded=0;orthogonalLoop=1;jettySize=auto;html=1;entryX=0;entryY=0.5;entryDx=0;entryDy=0;" parent="1" source="9ysJkB-p09xtjBn3U5HX-13" target="9ysJkB-p09xtjBn3U5HX-15" edge="1">
          <mxGeometry relative="1" as="geometry" />
        </mxCell>
        <mxCell id="9ysJkB-p09xtjBn3U5HX-13" value="&lt;font style=&quot;font-size: 14px;&quot;&gt;Obtained Feature Dataset&lt;/font&gt;" style="rounded=0;whiteSpace=wrap;html=1;fillColor=#fff2cc;strokeColor=#d6b656;" parent="1" vertex="1">
          <mxGeometry x="580" y="140" width="120" height="60" as="geometry" />
        </mxCell>
        <mxCell id="9ysJkB-p09xtjBn3U5HX-14" value="&lt;font style=&quot;font-size: 14px;&quot;&gt;Train Split&lt;/font&gt;" style="rounded=0;whiteSpace=wrap;html=1;fillColor=#fff2cc;strokeColor=#d6b656;" parent="1" vertex="1">
          <mxGeometry x="760" y="55" width="120" height="60" as="geometry" />
        </mxCell>
        <mxCell id="9ysJkB-p09xtjBn3U5HX-15" value="&lt;font style=&quot;font-size: 14px;&quot;&gt;Test Split&lt;/font&gt;" style="rounded=0;whiteSpace=wrap;html=1;fillColor=#fff2cc;strokeColor=#d6b656;" parent="1" vertex="1">
          <mxGeometry x="760" y="210" width="120" height="60" as="geometry" />
        </mxCell>
        <mxCell id="9ysJkB-p09xtjBn3U5HX-16" value="" style="rounded=0;whiteSpace=wrap;html=1;fillColor=#f5f5f5;fontColor=#333333;strokeColor=#666666;" parent="1" vertex="1">
          <mxGeometry x="950" y="-100" width="750" height="750" as="geometry" />
        </mxCell>
        <mxCell id="9ysJkB-p09xtjBn3U5HX-51" style="edgeStyle=orthogonalEdgeStyle;rounded=0;orthogonalLoop=1;jettySize=auto;html=1;exitX=1;exitY=0.5;exitDx=0;exitDy=0;entryX=0;entryY=0.5;entryDx=0;entryDy=0;" parent="1" source="9ysJkB-p09xtjBn3U5HX-15" target="9ysJkB-p09xtjBn3U5HX-30" edge="1">
          <mxGeometry relative="1" as="geometry">
            <Array as="points">
              <mxPoint x="930" y="240" />
              <mxPoint x="930" y="455" />
            </Array>
          </mxGeometry>
        </mxCell>
        <mxCell id="9ysJkB-p09xtjBn3U5HX-50" style="edgeStyle=orthogonalEdgeStyle;rounded=0;orthogonalLoop=1;jettySize=auto;html=1;exitX=1;exitY=0.5;exitDx=0;exitDy=0;" parent="1" source="9ysJkB-p09xtjBn3U5HX-14" target="9ysJkB-p09xtjBn3U5HX-18" edge="1">
          <mxGeometry relative="1" as="geometry" />
        </mxCell>
        <mxCell id="9ysJkB-p09xtjBn3U5HX-17" value="" style="endArrow=none;dashed=1;html=1;rounded=0;exitX=0;exitY=0.5;exitDx=0;exitDy=0;entryX=1;entryY=0.5;entryDx=0;entryDy=0;" parent="1" source="9ysJkB-p09xtjBn3U5HX-16" target="9ysJkB-p09xtjBn3U5HX-16" edge="1">
          <mxGeometry width="50" height="50" relative="1" as="geometry">
            <mxPoint x="1010" y="240" as="sourcePoint" />
            <mxPoint x="1060" y="190" as="targetPoint" />
          </mxGeometry>
        </mxCell>
        <mxCell id="9ysJkB-p09xtjBn3U5HX-26" value="&lt;font style=&quot;font-size: 14px;&quot;&gt;Trained Model&lt;/font&gt;" style="rounded=0;whiteSpace=wrap;html=1;fillColor=#fff2cc;strokeColor=#d6b656;" parent="1" vertex="1">
          <mxGeometry x="1460" y="60" width="120" height="50" as="geometry" />
        </mxCell>
        <mxCell id="9ysJkB-p09xtjBn3U5HX-56" style="edgeStyle=orthogonalEdgeStyle;rounded=0;orthogonalLoop=1;jettySize=auto;html=1;exitX=1;exitY=0.5;exitDx=0;exitDy=0;entryX=0;entryY=0.5;entryDx=0;entryDy=0;" parent="1" source="9ysJkB-p09xtjBn3U5HX-27" target="9ysJkB-p09xtjBn3U5HX-26" edge="1">
          <mxGeometry relative="1" as="geometry" />
        </mxCell>
        <mxCell id="9ysJkB-p09xtjBn3U5HX-27" value="&lt;font style=&quot;font-size: 14px;&quot;&gt;Soft Voting&lt;/font&gt;" style="rounded=0;whiteSpace=wrap;html=1;fillColor=#fff2cc;strokeColor=#d6b656;" parent="1" vertex="1">
          <mxGeometry x="1260" y="60" width="120" height="50" as="geometry" />
        </mxCell>
        <mxCell id="9ysJkB-p09xtjBn3U5HX-28" value="&lt;font style=&quot;font-size: 14px;&quot;&gt;Model Training&lt;/font&gt;" style="text;html=1;strokeColor=default;fillColor=none;align=center;verticalAlign=middle;whiteSpace=wrap;rounded=0;" parent="1" vertex="1">
          <mxGeometry x="950" y="-100" width="120" height="30" as="geometry" />
        </mxCell>
        <mxCell id="9ysJkB-p09xtjBn3U5HX-53" style="edgeStyle=orthogonalEdgeStyle;rounded=0;orthogonalLoop=1;jettySize=auto;html=1;exitX=1;exitY=0.5;exitDx=0;exitDy=0;" parent="1" source="9ysJkB-p09xtjBn3U5HX-30" target="9ysJkB-p09xtjBn3U5HX-31" edge="1">
          <mxGeometry relative="1" as="geometry" />
        </mxCell>
        <mxCell id="9ysJkB-p09xtjBn3U5HX-30" value="&lt;font style=&quot;font-size: 14px;&quot;&gt;Trained Model&lt;/font&gt;" style="rounded=0;whiteSpace=wrap;html=1;fillColor=#fff2cc;strokeColor=#d6b656;" parent="1" vertex="1">
          <mxGeometry x="1049" y="430" width="120" height="50" as="geometry" />
        </mxCell>
        <mxCell id="9ysJkB-p09xtjBn3U5HX-54" style="edgeStyle=orthogonalEdgeStyle;rounded=0;orthogonalLoop=1;jettySize=auto;html=1;exitX=1;exitY=0.5;exitDx=0;exitDy=0;" parent="1" source="9ysJkB-p09xtjBn3U5HX-31" target="9ysJkB-p09xtjBn3U5HX-33" edge="1">
          <mxGeometry relative="1" as="geometry" />
        </mxCell>
        <mxCell id="9ysJkB-p09xtjBn3U5HX-31" value="&lt;font style=&quot;font-size: 14px;&quot;&gt;Prediction&lt;/font&gt;" style="rounded=0;whiteSpace=wrap;html=1;fillColor=#fff2cc;strokeColor=#d6b656;" parent="1" vertex="1">
          <mxGeometry x="1265" y="430" width="120" height="50" as="geometry" />
        </mxCell>
        <mxCell id="9ysJkB-p09xtjBn3U5HX-43" value="" style="group;fillColor=#dae8fc;strokeColor=#6c8ebf;" parent="1" vertex="1" connectable="0">
          <mxGeometry x="1520" y="300" width="150" height="310" as="geometry" />
        </mxCell>
        <mxCell id="9ysJkB-p09xtjBn3U5HX-33" value="" style="rounded=0;whiteSpace=wrap;html=1;fillColor=#dae8fc;strokeColor=#6c8ebf;" parent="9ysJkB-p09xtjBn3U5HX-43" vertex="1">
          <mxGeometry width="150" height="310" as="geometry" />
        </mxCell>
        <mxCell id="9ysJkB-p09xtjBn3U5HX-34" value="&lt;font style=&quot;font-size: 14px;&quot;&gt;Accuracy&lt;/font&gt;" style="rounded=0;whiteSpace=wrap;html=1;fillColor=#fff2cc;strokeColor=#d6b656;" parent="9ysJkB-p09xtjBn3U5HX-43" vertex="1">
          <mxGeometry x="22.5" y="10" width="105" height="40" as="geometry" />
        </mxCell>
        <mxCell id="9ysJkB-p09xtjBn3U5HX-35" value="&lt;font style=&quot;font-size: 14px;&quot;&gt;Precision&lt;/font&gt;" style="rounded=0;whiteSpace=wrap;html=1;fillColor=#fff2cc;strokeColor=#d6b656;" parent="9ysJkB-p09xtjBn3U5HX-43" vertex="1">
          <mxGeometry x="22.5" y="60" width="105" height="40" as="geometry" />
        </mxCell>
        <mxCell id="9ysJkB-p09xtjBn3U5HX-36" value="&lt;font style=&quot;font-size: 14px;&quot;&gt;Recall&lt;/font&gt;" style="rounded=0;whiteSpace=wrap;html=1;fillColor=#fff2cc;strokeColor=#d6b656;" parent="9ysJkB-p09xtjBn3U5HX-43" vertex="1">
          <mxGeometry x="22.5" y="110" width="105" height="40" as="geometry" />
        </mxCell>
        <mxCell id="9ysJkB-p09xtjBn3U5HX-37" value="&lt;font style=&quot;font-size: 14px;&quot;&gt;F1&lt;/font&gt;" style="rounded=0;whiteSpace=wrap;html=1;fillColor=#fff2cc;strokeColor=#d6b656;" parent="9ysJkB-p09xtjBn3U5HX-43" vertex="1">
          <mxGeometry x="22.5" y="160" width="105" height="40" as="geometry" />
        </mxCell>
        <mxCell id="9ysJkB-p09xtjBn3U5HX-41" value="&lt;font style=&quot;font-size: 14px;&quot;&gt;AUC ROC&lt;/font&gt;" style="rounded=0;whiteSpace=wrap;html=1;fillColor=#fff2cc;strokeColor=#d6b656;" parent="9ysJkB-p09xtjBn3U5HX-43" vertex="1">
          <mxGeometry x="22.5" y="260" width="105" height="40" as="geometry" />
        </mxCell>
        <mxCell id="9ysJkB-p09xtjBn3U5HX-42" value="&lt;font style=&quot;font-size: 14px;&quot;&gt;Confusion Matrix&lt;/font&gt;" style="rounded=0;whiteSpace=wrap;html=1;fillColor=#fff2cc;strokeColor=#d6b656;" parent="9ysJkB-p09xtjBn3U5HX-43" vertex="1">
          <mxGeometry x="22.5" y="210" width="105" height="40" as="geometry" />
        </mxCell>
        <mxCell id="9ysJkB-p09xtjBn3U5HX-44" value="" style="group" parent="1" vertex="1" connectable="0">
          <mxGeometry x="1050" y="-20" width="150" height="240" as="geometry" />
        </mxCell>
        <mxCell id="9ysJkB-p09xtjBn3U5HX-18" value="" style="rounded=0;whiteSpace=wrap;html=1;fillColor=#dae8fc;strokeColor=#6c8ebf;" parent="9ysJkB-p09xtjBn3U5HX-44" vertex="1">
          <mxGeometry width="150" height="210" as="geometry" />
        </mxCell>
        <mxCell id="9ysJkB-p09xtjBn3U5HX-19" value="&lt;font style=&quot;font-size: 14px;&quot;&gt;SVM&lt;/font&gt;" style="rounded=0;whiteSpace=wrap;html=1;fillColor=#fff2cc;strokeColor=#d6b656;" parent="9ysJkB-p09xtjBn3U5HX-44" vertex="1">
          <mxGeometry x="24" y="10" width="105" height="40" as="geometry" />
        </mxCell>
        <mxCell id="9ysJkB-p09xtjBn3U5HX-20" value="&lt;font style=&quot;font-size: 14px;&quot;&gt;Random Forest&lt;/font&gt;" style="rounded=0;whiteSpace=wrap;html=1;fillColor=#fff2cc;strokeColor=#d6b656;" parent="9ysJkB-p09xtjBn3U5HX-44" vertex="1">
          <mxGeometry x="25" y="60" width="105" height="40" as="geometry" />
        </mxCell>
        <mxCell id="9ysJkB-p09xtjBn3U5HX-21" value="&lt;font style=&quot;font-size: 14px;&quot;&gt;AdaBoost&lt;/font&gt;" style="rounded=0;whiteSpace=wrap;html=1;fillColor=#fff2cc;strokeColor=#d6b656;" parent="9ysJkB-p09xtjBn3U5HX-44" vertex="1">
          <mxGeometry x="25" y="110" width="105" height="40" as="geometry" />
        </mxCell>
        <mxCell id="9ysJkB-p09xtjBn3U5HX-22" value="&lt;font style=&quot;font-size: 14px;&quot;&gt;ANN&lt;/font&gt;" style="rounded=0;whiteSpace=wrap;html=1;fillColor=#fff2cc;strokeColor=#d6b656;" parent="9ysJkB-p09xtjBn3U5HX-44" vertex="1">
          <mxGeometry x="25" y="160" width="105" height="40" as="geometry" />
        </mxCell>
        <mxCell id="9ysJkB-p09xtjBn3U5HX-24" value="&lt;font style=&quot;font-size: 14px;&quot;&gt;Model Ensemble&lt;/font&gt;" style="text;html=1;strokeColor=none;fillColor=none;align=center;verticalAlign=middle;whiteSpace=wrap;rounded=0;" parent="9ysJkB-p09xtjBn3U5HX-44" vertex="1">
          <mxGeometry x="15" y="220" width="120" height="20" as="geometry" />
        </mxCell>
        <mxCell id="9ysJkB-p09xtjBn3U5HX-45" value="&lt;font style=&quot;font-size: 14px;&quot;&gt;Evaluation Metric&lt;/font&gt;" style="text;html=1;strokeColor=none;fillColor=none;align=center;verticalAlign=middle;whiteSpace=wrap;rounded=0;" parent="1" vertex="1">
          <mxGeometry x="1533.75" y="620" width="122.5" height="20" as="geometry" />
        </mxCell>
        <mxCell id="9ysJkB-p09xtjBn3U5HX-46" style="edgeStyle=orthogonalEdgeStyle;rounded=0;orthogonalLoop=1;jettySize=auto;html=1;exitX=1;exitY=0.5;exitDx=0;exitDy=0;entryX=0;entryY=0.5;entryDx=0;entryDy=0;" parent="1" source="9ysJkB-p09xtjBn3U5HX-8" target="9ysJkB-p09xtjBn3U5HX-9" edge="1">
          <mxGeometry relative="1" as="geometry" />
        </mxCell>
        <mxCell id="9ysJkB-p09xtjBn3U5HX-47" style="edgeStyle=orthogonalEdgeStyle;rounded=0;orthogonalLoop=1;jettySize=auto;html=1;exitX=1;exitY=0.5;exitDx=0;exitDy=0;entryX=0;entryY=0.5;entryDx=0;entryDy=0;" parent="1" source="9ysJkB-p09xtjBn3U5HX-9" target="9ysJkB-p09xtjBn3U5HX-13" edge="1">
          <mxGeometry relative="1" as="geometry" />
        </mxCell>
        <mxCell id="9ysJkB-p09xtjBn3U5HX-52" value="&lt;font style=&quot;font-size: 14px;&quot;&gt;Model Evaluation&lt;/font&gt;" style="text;html=1;strokeColor=default;fillColor=none;align=center;verticalAlign=middle;whiteSpace=wrap;rounded=0;" parent="1" vertex="1">
          <mxGeometry x="950" y="620" width="120" height="30" as="geometry" />
        </mxCell>
        <mxCell id="9ysJkB-p09xtjBn3U5HX-55" style="edgeStyle=orthogonalEdgeStyle;rounded=0;orthogonalLoop=1;jettySize=auto;html=1;exitX=1;exitY=0.5;exitDx=0;exitDy=0;entryX=0;entryY=0.5;entryDx=0;entryDy=0;" parent="1" source="9ysJkB-p09xtjBn3U5HX-18" target="9ysJkB-p09xtjBn3U5HX-27" edge="1">
          <mxGeometry relative="1" as="geometry" />
        </mxCell>
      </root>
    </mxGraphModel>
  </diagram>
</mxfile>
